<svg width="481" height="429" viewBox="0 0 481 429" fill="none" xmlns="http://www.w3.org/2000/svg">
<g clip-path="url(#clip0_484_548)">
<path d="M55.1697 429L54.7511 428.844C40.5713 423.489 29.462 412.159 24.3744 397.864C22.996 393.892 22.1226 389.761 21.7749 385.57L21.7407 385.17L22.1352 385.241C26.8442 386.087 31.7877 386.554 33.9903 386.737L21.6333 378.55L21.6556 378.125C21.848 374.127 24.4498 370.65 28.2266 369.341C32.0395 367.931 36.3254 368.986 39.0514 372.005C40.2799 373.34 41.5787 374.684 42.8345 375.984C47.1504 380.45 51.6133 385.069 54.4353 390.521C58.6794 398.922 58.9097 408.792 55.0622 417.382L55.1697 429Z" fill="#F2F2F2"/>
<path d="M305.197 421.066L305.192 421.022C304.646 408.878 302.42 396.868 298.58 385.336L298.576 385.317C298.352 384.133 298.417 382.912 298.766 381.758C299.838 378.451 303.165 376.427 306.59 376.997C310.129 377.662 313.788 377.037 316.905 375.233C318.885 374.083 321.287 373.924 323.401 374.803C325.394 375.616 326.886 377.326 327.422 379.414C327.463 379.578 327.5 379.744 327.531 379.912C327.644 392.113 329.882 404.201 334.145 415.632L334.148 415.647C334.594 418.007 333.882 420.438 332.235 422.184C330.778 423.665 328.737 424.415 326.67 424.231C322.96 423.978 319.144 424.732 315.004 426.536C313.558 427.181 311.932 427.295 310.41 426.859C307.719 426.07 305.702 423.828 305.197 421.066Z" fill="#8A038C"/>
<path d="M186.584 254.246V413.719H298.158V254.246C298.162 251.892 296.631 249.81 294.385 249.115C293.869 248.944 293.328 248.86 292.785 248.866H191.973C189.003 248.86 186.59 251.267 186.584 254.241V254.246ZM230.127 309.042C230.187 302.455 235.569 297.165 242.147 297.225C248.64 297.285 253.888 302.541 253.948 309.042V327.545C253.917 334.132 248.559 339.446 241.981 339.415C235.447 339.384 230.158 334.088 230.127 327.545V309.042Z" fill="#F2F2F2"/>
<path d="M186.243 408.619V423.998C186.248 425.655 187.584 427 189.24 427.014H295.503C297.161 427.006 298.5 425.658 298.5 423.998V408.619H186.243Z" fill="#E6E6E6"/>
<path d="M11.0636 13.9789V305.154C11.0697 312.881 17.3233 319.143 25.0394 319.149H455.961C463.677 319.143 469.93 312.881 469.936 305.154V13.9789C469.918 6.26012 463.669 0.00979153 455.961 0H25.0394C17.3309 0.00983001 11.082 6.26014 11.0636 13.9789Z" fill="#E6E6E6"/>
<path d="M452.366 10.107H28.6343C24.5068 10.116 21.1654 13.4688 21.165 17.6018V301.563C21.1721 305.69 24.5121 309.035 28.6343 309.042H452.366C456.488 309.035 459.828 305.69 459.835 301.563V17.6018C459.835 13.4688 456.493 10.116 452.366 10.107ZM345.478 211.849C344.211 214.354 341.643 215.931 338.838 215.924L338.794 215.921C334.732 215.354 330.655 214.981 326.563 214.8C327.198 215.256 327.757 215.809 328.219 216.44C329.407 218.144 329.772 220.291 329.214 222.292C328.288 225.899 328.332 229.793 329.349 234.198C329.718 235.74 329.533 237.361 328.828 238.78C327.562 241.286 324.993 242.862 322.188 242.856L322.144 242.853C312.443 241.5 302.622 241.238 292.863 242.071C292.824 242.318 292.776 242.565 292.712 242.811C291.787 246.418 291.831 250.313 292.847 254.718C293.216 256.259 293.032 257.881 292.326 259.299C291.06 261.805 288.491 263.382 285.687 263.375L285.643 263.372C275.68 261.983 265.59 261.745 255.573 262.663C255.497 265.168 255.757 267.671 256.346 270.107C256.715 271.648 256.53 273.27 255.825 274.689C254.559 277.194 251.99 278.771 249.185 278.764L249.141 278.761C237.117 277.084 224.919 277.084 212.895 278.761H212.875C211.671 278.766 210.484 278.479 209.415 277.925C206.364 276.266 204.983 272.622 206.167 269.353C206.53 268.324 206.8 267.265 206.974 266.187C195.954 264.915 184.818 265.047 173.832 266.578H173.812C172.608 266.583 171.421 266.296 170.352 265.742C167.301 264.083 165.92 260.439 167.104 257.17C168.403 253.808 168.456 250.091 167.254 246.693C166.687 245.099 166.687 243.359 167.254 241.766C158.971 241.343 150.667 241.707 142.453 242.853H142.434C141.23 242.857 140.043 242.57 138.973 242.017C135.922 240.357 134.541 236.713 135.725 233.445C137.025 230.082 137.078 226.365 135.875 222.967C135.107 220.808 135.389 218.414 136.638 216.493C137.8 214.679 139.751 213.523 141.899 213.377C142.068 213.365 142.237 213.359 142.409 213.359C146.617 214.096 150.866 214.577 155.133 214.799C152.411 213.007 151.271 209.581 152.375 206.513C153.674 203.151 153.728 199.434 152.525 196.036C151.757 193.877 152.039 191.483 153.288 189.562C153.342 189.479 153.405 189.406 153.461 189.326C150.425 189.536 147.396 189.851 144.374 190.272H144.355C143.151 190.277 141.964 189.99 140.895 189.436C137.843 187.777 136.462 184.133 137.646 180.864C138.946 177.502 138.999 173.785 137.797 170.387C137.029 168.228 137.31 165.834 138.559 163.913C139.721 162.099 141.673 160.943 143.82 160.796C143.989 160.785 144.158 160.779 144.33 160.779C149.39 161.666 154.508 162.182 159.644 162.322C158.333 160.432 158.012 158.025 158.779 155.856C160.078 152.494 160.131 148.777 158.929 145.379C158.161 143.22 158.443 140.826 159.691 138.905C160.854 137.091 162.805 135.935 164.953 135.788C165.121 135.777 165.291 135.771 165.462 135.771C169.745 136.521 174.069 137.006 178.411 137.222C177.478 135.454 177.326 133.376 177.99 131.49C179.289 128.127 179.343 124.41 178.14 121.012C177.372 118.853 177.654 116.459 178.903 114.538C180.065 112.724 182.016 111.568 184.164 111.421C184.333 111.41 184.502 111.404 184.674 111.404C189.712 112.287 194.809 112.803 199.922 112.946C199.226 111.299 199.169 109.451 199.763 107.764C201.062 104.402 201.116 100.685 199.913 97.2869C199.145 95.128 199.427 92.7338 200.676 90.8129C201.838 88.9989 203.789 87.8429 205.937 87.696C206.106 87.6848 206.275 87.6788 206.446 87.6788C218.447 89.7939 230.725 89.7955 242.727 87.6835H242.742C243.668 87.8746 244.623 87.8746 245.55 87.6835H245.565C257.566 89.7955 269.844 89.7939 281.845 87.6788C282.016 87.6788 282.186 87.6848 282.354 87.696C284.502 87.8429 286.453 88.9989 287.616 90.8129C288.864 92.7338 289.146 95.128 288.378 97.2869C287.176 100.685 287.229 104.402 288.528 107.764C289.122 109.451 289.065 111.299 288.369 112.946C293.482 112.803 298.579 112.287 303.618 111.404C303.789 111.404 303.958 111.41 304.127 111.421C306.275 111.568 308.226 112.724 309.388 114.538C310.637 116.459 310.919 118.853 310.151 121.012C308.948 124.41 309.002 128.127 310.301 131.49C310.966 133.376 310.813 135.454 309.88 137.222C314.222 137.006 318.547 136.521 322.829 135.771C323 135.771 323.17 135.777 323.339 135.788C325.486 135.935 327.437 137.091 328.6 138.905C329.848 140.826 330.13 143.22 329.362 145.379C328.16 148.777 328.213 152.494 329.512 155.856C330.282 158.031 329.956 160.444 328.638 162.336C329.21 162.768 329.716 163.282 330.14 163.86C331.328 165.564 331.693 167.71 331.135 169.711C330.21 173.318 330.253 177.213 331.27 181.618C331.639 183.159 331.455 184.781 330.749 186.199C330.491 186.704 330.177 187.179 329.813 187.613C332.81 187.349 335.801 186.956 338.783 186.432H338.798C341.197 186.424 343.455 187.568 344.869 189.509C346.056 191.213 346.421 193.359 345.864 195.36C344.938 198.967 344.982 202.862 345.999 207.267C346.368 208.808 346.183 210.43 345.478 211.849Z" fill="white"/>
<path d="M438.622 49.2239H42.1383C41.2675 49.2047 40.5772 48.4823 40.5963 47.6104C40.6149 46.7655 41.2945 46.085 42.1383 46.0663H438.622C439.493 46.0855 440.183 46.808 440.164 47.6799C440.145 48.5248 439.466 49.2053 438.622 49.2239Z" fill="#E6E6E6"/>
<path d="M245.17 271.2L245.126 271.197C233.102 269.52 220.904 269.52 208.879 271.197H208.86C207.656 271.202 206.469 270.915 205.4 270.361C202.349 268.702 200.968 265.058 202.152 261.789C203.451 258.427 203.504 254.71 202.302 251.312C201.534 249.153 201.816 246.759 203.064 244.838C204.227 243.024 206.178 241.868 208.325 241.721C208.494 241.71 208.664 241.704 208.835 241.704C220.836 243.819 233.114 243.821 245.115 241.709H245.13C247.529 241.7 249.787 242.844 251.201 244.785C252.388 246.489 252.753 248.635 252.196 250.637C251.27 254.244 251.314 258.138 252.331 262.543C252.7 264.084 252.515 265.706 251.81 267.125C250.543 269.63 247.975 271.207 245.17 271.2Z" fill="#8A038C"/>
<path d="M282.147 208.33L272.474 200.315C265.22 204.122 254.182 219.322 254.182 219.322L228.718 237.66C225.66 237.806 223.299 240.406 223.445 243.468C223.591 246.53 226.188 248.895 229.246 248.749C231.23 248.654 233.012 247.503 233.917 245.732L268.515 227.425L282.147 208.33Z" fill="#FFB8B8"/>
<path d="M298.468 177.823C304.051 182.558 304.744 190.928 300.015 196.518C299.485 197.145 298.899 197.721 298.262 198.238L292.111 203.246C292.111 203.246 276.767 225.364 268.78 227.93L248.276 238.656L239.031 229.374L257.614 214.209C257.614 214.209 266.161 206.114 267.016 200.189C267.541 196.559 273.674 186.674 279.823 179.342C284.542 173.768 292.88 173.08 298.446 177.805L298.468 177.823Z" fill="#3F3D56"/>
<path d="M278.588 417.87L269.849 417.869L265.691 384.115L278.59 384.115L278.588 417.87Z" fill="#FFB6B6"/>
<path d="M278.896 426.998L252.021 426.997V426.657C252.022 420.872 256.705 416.183 262.482 416.183L267.391 412.454L276.55 416.184L278.896 416.184L278.896 426.998Z" fill="#2F2E41"/>
<path d="M345.177 371.81L341.038 379.517L309.379 367.2L315.488 355.825L345.177 371.81Z" fill="#FFB6B6"/>
<path d="M353.353 375.861L340.626 399.563L340.326 399.402C335.239 396.662 333.331 390.311 336.067 385.216L336.067 385.216L335.111 379.12L342.729 372.809L343.84 370.74L353.353 375.861Z" fill="#2F2E41"/>
<path d="M262.065 263.294L254.352 325.083L258.208 345.798L327.628 376.251L331.485 363.701C313.74 352.828 294.772 336.373 282.819 335.164C282.819 335.164 281.828 324.199 290.391 317.431C292.118 316.066 291.74 314.219 292.439 312.545C292.919 311.393 294.83 310.194 295.32 309.013C295.954 307.482 295.169 305.961 295.807 304.405C296.166 303.531 297.525 303.476 297.882 302.6C298.489 301.107 298.091 298.795 298.684 297.32C299.95 294.168 301.167 291.085 302.278 288.196C305.736 279.201 308.17 272.074 307.863 270.535C306.899 265.708 262.065 263.294 262.065 263.294Z" fill="#2F2E41"/>
<path d="M260.737 324.904L256.701 350.998L266.886 404.249H280.384C285.234 386.356 285.484 362.84 280.866 342.943L260.737 324.904Z" fill="#2F2E41"/>
<path d="M269.409 187.802L275.631 176.944L282.313 171.577L294.847 169.646L298.329 172.328C310.861 191.507 315.535 214.783 311.379 237.321L310.4 242.627L309.78 245.994L310.049 250.02L307.957 255.88L308.245 260.171L308.398 262.463L308.552 264.763L308.768 267.974C309.153 269.807 307.212 269.565 307.487 271.18C307.969 274.017 310.131 278.22 306.847 278.234L272.907 271.18C264.284 271.216 256.257 260.921 264.582 252.585L269.409 187.802Z" fill="#3F3D56"/>
<path d="M285.295 166.622C294.398 166.622 301.777 159.233 301.777 150.119C301.777 141.004 294.398 133.616 285.295 133.616C276.193 133.616 268.814 141.004 268.814 150.119C268.814 159.233 276.193 166.622 285.295 166.622Z" fill="#FFB8B8"/>
<path d="M285.575 166.153C287.986 166.191 290.396 166.022 292.779 165.649C295.141 165.168 300.425 161.291 301.898 158.958C302.992 157.224 303.692 154.517 304.086 152.552C305.161 147.292 303.957 141.823 300.775 137.502C300.17 136.609 299.336 135.895 298.359 135.438C298.273 135.404 298.184 135.374 298.094 135.348C296.671 134.973 295.392 134.181 294.422 133.073C294.234 132.849 294.03 132.639 293.812 132.444C292.716 131.518 291.416 130.865 290.02 130.537C287.765 129.933 284.502 130.533 280.322 132.322C278.222 133.22 275.925 132.895 274.158 132.511C273.956 132.472 273.749 132.544 273.614 132.698C272.862 133.405 271.871 133.8 270.84 133.805C270.208 133.833 269.546 134.709 268.745 135.851C268.563 136.11 268.351 136.412 268.198 136.596L268.177 136.243L267.82 136.637C265.982 138.666 266.135 141.802 268.161 143.642C268.705 144.137 269.353 144.504 270.056 144.717C270.692 144.886 271.342 144.99 271.999 145.027C272.396 145.062 272.808 145.099 273.202 145.168C275.775 145.696 277.882 147.538 278.75 150.02C279.114 151.036 280.232 151.565 281.248 151.201C281.407 151.143 281.558 151.065 281.698 150.969C282.531 150.319 283.629 150.119 284.638 150.433C285.067 150.672 285.401 151.052 285.584 151.508C285.807 152.017 286.176 152.448 286.643 152.746C288.244 153.572 288.354 157.232 287.779 160.284C287.225 163.225 286.13 165.353 285.116 165.458C284.335 165.539 284.246 165.595 284.189 165.733L284.139 165.857L284.227 165.973C284.658 166.129 285.118 166.191 285.575 166.153Z" fill="#2F2E41"/>
<path d="M252.214 156.421L252.17 156.418C240.146 154.74 227.948 154.74 215.924 156.418H215.904C214.7 156.422 213.513 156.136 212.444 155.582C209.393 153.922 208.012 150.278 209.196 147.01C210.495 143.648 210.548 139.931 209.346 136.533C208.578 134.374 208.86 131.979 210.108 130.059C211.271 128.245 213.222 127.089 215.369 126.942C215.538 126.93 215.708 126.924 215.879 126.924C227.88 129.04 240.158 129.041 252.159 126.929H252.174C254.573 126.921 256.831 128.065 258.245 130.006C259.432 131.71 259.797 133.856 259.24 135.857C258.314 139.464 258.358 143.359 259.375 147.764C259.744 149.305 259.559 150.927 258.854 152.345C257.587 154.851 255.019 156.428 252.214 156.421Z" fill="#8A038C"/>
<path d="M267.626 195.289L274.446 184.733C269.822 177.964 253.457 168.763 253.457 168.763L232.292 145.583C231.79 142.559 228.935 140.515 225.915 141.018C222.895 141.521 220.854 144.38 221.356 147.404C221.682 149.366 223.031 151.004 224.894 151.697L247.094 183.964L267.626 195.289Z" fill="#FFB8B8"/>
<path d="M299.792 207.954C295.748 214.06 287.527 215.727 281.43 211.678C280.747 211.224 280.107 210.708 279.519 210.136L273.834 204.604C273.834 204.604 250.002 192.143 246.524 184.501L230.908 162.323L241.379 152.865L259.577 169.43C259.577 169.43 267.956 179.132 273.933 179.291C277.594 179.388 288.116 184.333 296.106 189.59C302.186 193.631 303.843 201.843 299.807 207.931L299.792 207.954Z" fill="#3F3D56"/>
<path d="M141.036 426.902L140.991 426.899C128.967 425.222 116.769 425.222 104.745 426.899H104.726C103.522 426.904 102.335 426.617 101.265 426.063C98.2141 424.404 96.8332 420.76 98.0172 417.491C99.3164 414.129 99.3697 410.412 98.1673 407.014C97.3993 404.855 97.6812 402.461 98.9296 400.54C100.092 398.726 102.043 397.57 104.191 397.423C104.36 397.412 104.529 397.406 104.701 397.406C116.702 399.521 128.979 399.523 140.981 397.411H140.996C143.395 397.402 145.652 398.546 147.066 400.487C148.254 402.191 148.619 404.337 148.061 406.339C147.136 409.946 147.179 413.84 148.196 418.245C148.565 419.786 148.381 421.408 147.675 422.827C146.409 425.332 143.84 426.909 141.036 426.902Z" fill="#8A038C"/>
<path d="M151.282 399.971L151.237 399.968C139.213 398.29 127.015 398.29 114.991 399.968H114.972C113.768 399.972 112.581 399.686 111.511 399.132C108.46 397.472 107.079 393.828 108.263 390.56C109.562 387.198 109.616 383.481 108.413 380.083C107.645 377.924 107.927 375.529 109.176 373.609C110.338 371.795 112.289 370.639 114.437 370.492C114.606 370.48 114.775 370.474 114.947 370.474C126.948 372.59 139.225 372.591 151.227 370.479H151.242C153.641 370.471 155.898 371.615 157.312 373.556C158.5 375.26 158.865 377.406 158.307 379.407C157.382 383.014 157.425 386.909 158.442 391.314C158.811 392.855 158.627 394.477 157.921 395.895C156.655 398.401 154.086 399.978 151.282 399.971Z" fill="#8A038C"/>
<path d="M61.6206 407.313L61.648 407.278C69.773 398.245 76.608 388.128 81.9577 377.216L81.9685 377.2C82.6393 376.199 83.5417 375.375 84.5988 374.798C87.6812 373.197 91.4692 374.094 93.5095 376.907C95.5626 379.869 98.6074 381.996 102.092 382.903C104.308 383.475 106.13 385.051 107.02 387.162C107.869 389.143 107.732 391.409 106.65 393.272C106.565 393.419 106.475 393.563 106.379 393.705C97.9048 402.473 91.024 412.655 86.0463 423.792L86.0379 423.804C84.7007 425.799 82.4893 427.03 80.0917 427.115C78.0168 427.145 76.037 426.246 74.694 424.662C72.229 421.873 68.9829 419.727 64.7695 418.102C63.288 417.545 62.0498 416.483 61.2716 415.103C59.9087 412.649 60.0437 409.635 61.6206 407.313Z" fill="#8A038C"/>
<path d="M480.242 427.88L0.758513 428.077C0.337407 428.075 -0.00219224 427.732 1.06569e-05 427.31C0.00218794 426.891 0.340512 426.553 0.758513 426.55L480.242 426.353C480.663 426.356 481.002 426.699 481 427.121C480.998 427.539 480.66 427.878 480.242 427.88Z" fill="#CACACA"/>
<path d="M102.621 34.5673C105.612 34.5673 108.037 32.0854 108.037 29.0239C108.037 25.9623 105.612 23.4804 102.621 23.4804C99.6306 23.4804 97.2061 25.9623 97.2061 29.0239C97.2061 32.0854 99.6306 34.5673 102.621 34.5673Z" fill="#3F3D56"/>
<path d="M121.329 34.5673C124.32 34.5673 126.745 32.0854 126.745 29.0239C126.745 25.9623 124.32 23.4804 121.329 23.4804C118.339 23.4804 115.914 25.9623 115.914 29.0239C115.914 32.0854 118.339 34.5673 121.329 34.5673Z" fill="#3F3D56"/>
<path d="M140.037 34.5673C143.028 34.5673 145.453 32.0854 145.453 29.0239C145.453 25.9623 143.028 23.4804 140.037 23.4804C137.046 23.4804 134.622 25.9623 134.622 29.0239C134.622 32.0854 137.046 34.5673 140.037 34.5673Z" fill="#3F3D56"/>
<path d="M161.369 33.4052C161.203 33.4052 161.037 33.3407 160.911 33.2123L157.257 29.4721C157.014 29.2228 157.014 28.8246 157.257 28.5753L160.911 24.8354C161.159 24.5824 161.565 24.5783 161.817 24.8254C162.07 25.073 162.074 25.4791 161.827 25.7321L158.611 29.0237L161.827 32.3156C162.074 32.5686 162.07 32.9747 161.817 33.2224C161.692 33.3445 161.531 33.4052 161.369 33.4052Z" fill="#3F3D56"/>
<path d="M167.509 33.4053C167.348 33.4053 167.186 33.3445 167.062 33.2224C166.809 32.9747 166.804 32.569 167.052 32.3157L170.267 29.0237L167.052 25.7321C166.804 25.4792 166.809 25.0731 167.062 24.8254C167.314 24.5774 167.72 24.5821 167.967 24.8354L171.621 28.5754C171.864 28.8246 171.864 29.2229 171.621 29.4721L167.967 33.2124C167.842 33.3408 167.676 33.4053 167.509 33.4053Z" fill="#3F3D56"/>
<path d="M358.668 24.1222H351.874C351.099 24.1222 350.472 24.7506 350.472 25.5265V32.3363C350.472 33.1122 351.099 33.7406 351.874 33.7406H358.668C359.443 33.7406 360.077 33.1122 360.077 32.3363V25.5265C360.077 24.7506 359.443 24.1222 358.668 24.1222Z" fill="#3F3D56"/>
<path d="M342.018 24.1222H335.224C334.449 24.1222 333.822 24.7506 333.822 25.5265V32.3363C333.822 33.1122 334.449 33.7406 335.224 33.7406H342.018C342.793 33.7406 343.427 33.1122 343.427 32.3363V25.5265C343.427 24.7506 342.793 24.1222 342.018 24.1222Z" fill="#3F3D56"/>
<path d="M374.358 24.4428H367.563C366.788 24.4428 366.161 25.0712 366.161 25.8471V32.6569C366.161 33.4328 366.788 34.0612 367.563 34.0612H374.358C375.132 34.0612 375.766 33.4328 375.766 32.6569V25.8471C375.766 25.0712 375.132 24.4428 374.358 24.4428Z" fill="#3F3D56"/>
<path d="M271.947 27.0334H217.637C216.689 27.0334 215.927 27.8029 215.927 28.7455C215.927 29.6881 216.689 30.4575 217.637 30.4575H271.947C272.889 30.4575 273.657 29.6881 273.657 28.7455C273.657 27.8029 272.889 27.0334 271.947 27.0334Z" fill="#3F3D56"/>
</g>
<defs>
<clipPath id="clip0_484_548">
<rect width="481" height="429" fill="white"/>
</clipPath>
</defs>
</svg>
